<svg width="180" height="40" viewBox="0 0 180 40" fill="none" xmlns="http://www.w3.org/2000/svg" role="img" aria-label="M.K. Store logo">
  <defs>
    <linearGradient id="g" x1="0" y1="0" x2="180" y2="40" gradientUnits="userSpaceOnUse">
      <stop stop-color="#2563EB"/>
      <stop offset="1" stop-color="#60A5FA"/>
    </linearGradient>
  </defs>
  <rect x="0.5" y="0.5" width="179" height="39" rx="10" fill="url(#g)"/>
  <rect x="0.5" y="0.5" width="179" height="39" rx="10" stroke="rgba(255,255,255,0.15)"/>
  <g fill="#FFFFFF">
    <path d="M20 27V12h3.2l3.7 6.3L30.7 12H34v15h-3v-9.1l-4.1 6.6h-.2l-4-6.5V27H20z"/>
    <circle cx="43" cy="15" r="2"/>
    <path d="M40 27V18h3v9h-3z"/>
    <path d="M53.5 27V12h3.2l3.8 6.3 3.8-6.3H68v15h-3v-9.1l-4.1 6.6h-.2l-4-6.5V27h-3.2z"/>
  </g>
  <g fill="#FFFFFF" opacity="0.95">
    <path d="M82 27V16h3v11h-3zm6.2 0V16h2.8l7 7.2V16H101v11h-2.8l-7.2-7.4V27H88.2z"/>
    <path d="M105 27V16h11.2v2.5h-8.2v1.9h7.2v2.5h-7.2V24h8.4v3h-11.4z"/>
  </g>
  <g transform="translate(142,9)">
    <path d="M0 4h4l2.2 9.5A4 4 0 0 0 10.1 16H22v-3H10.1l-.3-1.4H23a2 2 0 0 0 1.9-1.5l1.8-7.1H6.2L5.8 1A2 2 0 0 0 3.9 0H0v4z" fill="#FFFFFF"/>
    <circle cx="10" cy="20" r="2" fill="#FFFFFF"/>
    <circle cx="20" cy="20" r="2" fill="#FFFFFF"/>
  </g>
</svg>

